<svg width="649.984375" height="648.250000" viewBox="0 0 649.984 648.25" fill="none" xmlns="http://www.w3.org/2000/svg" xmlns:xlink="http://www.w3.org/1999/xlink">
	<desc>
			Created with Pixso.
	</desc>
	<defs/>
	<path id="Vector" d="M346.26 155.02L346.42 0.12L344.42 0L324.99 153.71L305.55 0L303.56 0.12L303.56 155.05L264.99 4.97L263.03 5.35L282.61 159.03L225.53 14.9L223.64 15.52L262.2 165.74L187.5 29.78L185.69 30.63L242.93 174.77L151.68 49.29L150 50.36L224.86 186.33L118.57 73.28L117.03 74.55L208.27 199.87L88.79 101.1L87.42 102.56L193.7 215.44L62.67 132.45L61.5 134.06L181.14 232.84L40.7 166.84L39.74 168.59L170.76 251.58L23.19 203.63L22.45 205.49L162.89 271.49L10.46 242.36L9.96 244.29L157.53 292.24L2.67 282.37L2.42 284.35L154.85 313.33L0 323.04L0 325.04L154.85 334.75L2.42 363.73L2.67 365.71L157.53 356L9.96 403.79L10.46 405.72L162.92 376.74L22.45 442.75L23.19 444.61L170.76 396.66L39.74 479.65L40.7 481.4L181.14 415.4L61.5 514.18L62.67 515.79L193.7 432.64L87.42 545.68L88.79 547.14L208.27 448.22L117.03 573.69L118.57 574.96L224.85 461.92L150 597.72L151.68 598.79L242.93 473.31L185.69 617.45L187.5 618.3L262.2 482.49L223.64 632.56L225.53 633.18L282.62 489.05L263.03 642.89L264.99 643.27L303.56 493.04L303.56 648.12L305.55 648.25L324.99 494.38L344.42 648.25L346.42 648.12L346.26 493.07L384.82 643.27L386.78 642.89L367.35 489.02L424.44 633.18L426.34 632.56L387.77 482.49L462.48 618.3L464.28 617.45L407.05 473.31L498.29 598.79L499.98 597.72L425.14 461.94L531.25 574.96L532.79 573.69L441.68 448.2L561.18 547.14L562.55 545.68L456.27 432.64L587.3 515.79L588.47 514.18L468.83 415.4L609.27 481.4L610.24 479.65L479.22 396.66L626.79 444.61L627.52 442.75L487.06 376.74L639.52 405.72L640.01 403.79L492.44 356L647.3 365.71L647.55 363.73L495.12 334.75L649.98 325.04L649.98 323.04L495.12 313.33L647.55 284.35L647.3 282.37L492.44 292.24L640.01 244.29L639.52 242.36L487.09 271.49L627.52 205.49L626.79 203.63L479.22 251.58L610.24 168.59L609.27 166.84L468.83 232.84L588.47 134.06L587.3 132.45L456.27 215.44L562.55 102.56L561.18 101.1L441.68 199.89L532.79 74.55L531.25 73.28L425.13 186.31L499.98 50.36L498.29 49.29L407.05 174.77L464.28 30.63L462.48 29.78L387.77 165.74L426.34 15.52L424.44 14.9L367.35 159.06L386.78 5.35L384.82 4.97L346.26 155.02ZM346.26 159.05L345.26 162.96L345.26 158.92L345.41 8.15L345.42 0.12L344.41 8.09L325.49 157.7L324.99 161.68L324.48 157.7L305.56 8.03L304.56 0.12L304.56 162.96L303.56 159.07L266.02 13L264.02 5.22L265.04 13.19L284.1 162.78L284.61 166.79L283.12 163.03L227.54 22.68L224.6 15.27L226.59 22.99L264.14 169.27L265.14 173.17L263.2 169.64L190.5 37.33L186.62 30.26L189.6 37.75L245.3 178.03L246.79 181.78L244.42 178.52L155.57 56.34L150.87 49.88L154.73 56.88L227.61 189.26L229.55 192.78L226.8 189.85L123.32 79.79L117.84 73.96L122.55 80.43L211.38 202.44L213.75 205.7L210.65 203.13L94.35 106.99L88.15 101.87L199.87 220.53L196.46 218.38L68.89 137.57L62.14 133.29L68.3 138.38L184.79 234.56L187.9 237.12L184.25 235.41L40.27 167.74L47.03 172.02L174.6 252.82L178 254.98L174.17 253.74L30.5 207.06L22.88 204.58L30.13 207.99L166.85 272.25L170.5 273.96L166.54 273.2L18.13 244.84L10.27 243.34L17.88 245.81L161.56 292.49L165.4 293.74L161.37 293.48L10.66 283.88L2.61 283.37L10.54 284.88L158.88 313.08L162.84 313.83L158.82 314.09L8.05 323.54L0.06 324.04L8.05 324.54L158.82 334L162.84 334.25L158.88 335L10.48 363.22L2.61 364.71L10.6 364.21L161.37 354.76L165.4 354.5L161.56 355.75L17.88 402.28L10.27 404.74L18.13 403.25L166.55 375.03L170.5 374.28L166.86 375.99L30.13 440.25L22.88 443.66L30.5 441.18L174.17 394.51L178 393.26L174.6 395.42L47.03 476.22L40.27 480.5L47.52 477.1L184.25 412.84L187.9 411.12L184.79 413.69L68.34 509.83L62.14 514.95L68.93 510.64L196.46 429.71L199.87 427.55L197.11 430.48L93.66 540.51L88.15 546.37L94.35 541.24L210.64 444.95L213.75 442.38L211.38 445.64L122.52 567.83L117.84 574.28L123.29 568.47L226.79 458.39L229.55 455.46L227.61 458.99L154.75 591.18L150.87 598.2L155.59 591.71L244.42 469.56L246.79 466.3L245.3 470.05L189.58 610.36L186.62 617.82L190.49 610.78L263.2 478.6L265.14 475.08L264.14 478.97L226.59 625.07L224.6 632.81L227.54 625.39L283.12 485.05L284.61 481.3L284.1 485.3L265.04 635.04L264.02 643.02L266.02 635.23L303.56 489.02L304.56 485.12L304.56 648.12L305.56 640.2L324.48 490.39L324.99 486.4L325.49 490.39L344.41 640.14L345.42 648.12L345.41 640.08L345.26 489.16L345.26 485.12L346.26 489.03L383.81 635.29L385.79 643.02L384.79 635.1L365.87 485.28L365.36 481.3L366.85 485.03L422.43 625.38L425.37 632.81L423.38 625.07L385.84 478.97L384.84 475.08L386.77 478.6L459.49 610.78L463.35 617.82L460.39 610.36L404.68 470.05L403.19 466.3L405.56 469.56L494.38 591.71L499.1 598.2L495.23 591.18L422.37 459L420.42 455.46L423.19 458.4L526.53 568.47L531.98 574.28L527.3 567.83L438.59 445.64L436.22 442.38L439.32 444.95L555.63 541.24L561.82 546.37L556.31 540.51L452.87 430.48L450.11 427.55L453.51 429.71L581.05 510.64L587.84 514.95L581.64 509.83L465.18 413.69L462.08 411.12L465.72 412.84L602.46 477.1L609.7 480.5L602.94 476.22L475.38 395.42L471.97 393.26L475.81 394.51L619.48 441.18L627.09 443.66L619.85 440.25L483.11 375.99L479.47 374.28L483.42 375.03L631.84 403.25L639.7 404.74L632.09 402.28L488.42 355.75L484.58 354.5L488.6 354.76L639.37 364.21L647.36 364.71L639.5 363.22L491.1 335L487.13 334.25L491.16 334L641.93 324.54L649.92 324.04L641.93 323.54L491.16 314.09L487.13 313.83L491.1 313.08L639.44 284.88L647.36 283.37L639.31 283.88L488.6 293.48L484.58 293.74L488.42 292.49L632.09 245.81L639.7 243.34L631.84 244.84L483.43 273.2L479.47 273.96L483.12 272.25L619.85 207.99L627.09 204.58L619.48 207.06L475.81 253.74L471.97 254.98L475.38 252.82L602.94 172.02L609.7 167.74L602.46 171.15L465.72 235.41L462.08 237.12L465.18 234.56L581.68 138.38L587.84 133.29L581.09 137.57L453.51 218.38L450.11 220.53L452.87 217.6L556.31 107.72L561.82 101.87L555.63 106.99L439.32 203.14L436.22 205.7L438.59 202.45L527.28 80.43L531.98 73.96L526.5 79.79L423.18 189.84L420.42 192.78L422.37 189.25L495.25 56.88L499.1 49.88L494.4 56.34L405.56 178.52L403.19 181.78L404.68 178.03L460.38 37.75L463.35 30.26L459.47 37.33L386.77 169.64L384.84 173.17L385.84 169.27L423.39 22.99L425.37 15.27L422.44 22.68L366.85 163.05L365.36 166.79L365.87 162.8L384.79 13.13L385.79 5.22L383.81 12.94L346.26 159.05Z" fill="#000000" fill-opacity="1.000000" fill-rule="evenodd"/>
</svg>
